# xmcd
#
# Track frame offsets:
#	182
#	14435
#	28072
#	45895
#	57007
#	70770
#	84515
#	102357
#	119715
#	134085
#	145262
#	161355
#	176960
#	190575
#	201460
#	212340
#	232467
#	250052
#
# Disc length: 3508 seconds
#
# Revision: 1
# Processed by: cddbd v1.5.1PL0 Copyright (c) Steve Scherf et al.
# Submitted via: CDex 1.50Beta5
#
DISCID=070db212
DTITLE=映画音楽 - 映画音楽館（9）
DYEAR=1900
DGENRE=Soundtrack
TTITLE0=オズの魔法使
TTITLE1=赤い風車
TTITLE2=めぐり逢い
TTITLE3=避暑地の出来事
TTITLE4=アパートの鍵貸します
TTITLE5=夜霧のしのび逢い
TTITLE6=男と女
TTITLE7=個人教授
TTITLE8=エマニエル夫人
TTITLE9=時計じかけのオレンジ
TTITLE10=栄光への脱出
TTITLE11=グレン・ミラー物語
TTITLE12=黒いオルフェ
TTITLE13=映画に愛をこめて・アメリカの夜
TTITLE14=燃えよドラゴン
TTITLE15=スーパーマン
TTITLE16=ミスター・アーサー
TTITLE17=スタンド・バイ・ミー
EXTD=
EXTT0=
EXTT1=
EXTT2=
EXTT3=
EXTT4=
EXTT5=
EXTT6=
EXTT7=
EXTT8=
EXTT9=
EXTT10=
EXTT11=
EXTT12=
EXTT13=
EXTT14=
EXTT15=
EXTT16=
EXTT17=
PLAYORDER=
